<?xml version="1.0" encoding="UTF-8"?>
<svg id="Layer_2" data-name="Layer 2" xmlns="http://www.w3.org/2000/svg" viewBox="0 0 481.6 162.64">
  <defs>
    <style>
      .cls-1 {
        fill: #18181b;
      }
    </style>
  </defs>
  <g id="Layer_1-2" data-name="Layer 1">
    <g>
      <path class="cls-1" d="M179.86,101.11c.54,4.35,2.45,7.37,5.71,9.06,3.26,1.69,7.02,2.53,11.26,2.53s7.56-.73,10.28-2.2c2.72-1.47,4.08-3.89,4.08-7.26,0-2.17-.98-3.84-2.94-4.98-1.96-1.14-4.52-2.07-7.67-2.77-3.16-.71-6.64-1.39-10.45-2.04-3.81-.65-7.65-1.52-11.51-2.61-3.86-1.09-7.37-2.61-10.53-4.57-3.16-1.96-5.71-4.62-7.67-8-1.96-3.37-2.94-7.67-2.94-12.89,0-4.9,1.6-9.6,4.82-14.12,3.21-4.51,7.7-8.18,13.46-11.02,5.77-2.83,12.35-4.24,19.75-4.24,6.63,0,12.78,1.33,18.44,4,5.66,2.67,10.23,6.34,13.71,11.02,3.48,4.68,5.22,10.12,5.22,16.32h-23.34c-.44-4.35-2.04-7.34-4.81-8.98-2.77-1.63-6.07-2.45-9.88-2.45-4.68,0-8.21.9-10.61,2.69s-3.59,4.05-3.59,6.77c0,2.4.98,4.24,2.94,5.55,1.96,1.31,4.51,2.34,7.67,3.1,3.15.76,6.66,1.44,10.53,2.04,3.86.6,7.7,1.42,11.51,2.45,3.81,1.04,7.29,2.5,10.45,4.41,3.15,1.9,5.71,4.49,7.67,7.75,1.96,3.26,2.94,7.45,2.94,12.57,0,5.77-1.61,10.85-4.81,15.26-3.21,4.41-7.67,7.86-13.38,10.36-5.71,2.5-12.43,3.75-20.16,3.75-7.18,0-13.74-1.39-19.66-4.16-5.93-2.77-10.69-6.53-14.28-11.26-3.59-4.73-5.5-10.09-5.71-16.08h23.5Z"/>
      <path class="cls-1" d="M265.86,130l-27.74-91.39h24.97l24.48,91.39h-21.71ZM249.38,162.64v-19.91h20.24l7.18-20.56h23.01l-13.06,40.47h-37.37ZM275.66,130l24.48-91.39h24.97l-27.74,91.39h-21.71Z"/>
      <path class="cls-1" d="M332.12,58.52v-19.91h51.41v19.91h-51.41ZM342.56,130V15.76h23.34v94.33h20.24v19.91h-43.57Z"/>
      <path class="cls-1" d="M417.14,92.14v-18.93h47.82l-7.51,4.41c.54-3.15.24-6.34-.9-9.55-1.14-3.21-3.13-5.88-5.96-8-2.83-2.12-6.64-3.18-11.43-3.18-6.2,0-11.51,2.04-15.91,6.12-4.41,4.08-6.45,10.2-6.12,18.36h-24.64c.54-9.9,2.99-18.2,7.34-24.89,4.35-6.69,9.95-11.78,16.81-15.26,6.85-3.48,14.36-5.22,22.52-5.22,6.2,0,12.08,1.25,17.63,3.75,5.55,2.5,10.33,6.15,14.36,10.93,4.02,4.79,6.96,10.66,8.81,17.63,1.85,6.96,2.12,14.91.82,23.83h-63.65ZM439.17,132.61c-8.49,0-16.02-1.69-22.6-5.06-6.58-3.37-11.89-8.1-15.91-14.2-4.03-6.09-6.58-13.16-7.67-21.22h24.15c.87,5.66,3.02,10.34,6.45,14.04,3.43,3.7,8.62,5.55,15.58,5.55,4.46,0,8.16-1.03,11.1-3.1,2.94-2.07,5-4.62,6.2-7.67h24.64c-1.31,6.31-3.86,11.83-7.67,16.56-3.81,4.73-8.62,8.43-14.44,11.1-5.82,2.67-12.43,4-19.83,4Z"/>
      <g>
        <rect class="cls-1" width="23.11" height="40.99"/>
        <rect class="cls-1" x="23.11" y="40.99" width="23.11" height="89.14"/>
      </g>
      <g>
        <path class="cls-1" d="M117.32,36.22h.1c15.23,0,27.6,12.37,27.6,27.6v66.41h-27.7V36.22h0Z"/>
        <path class="cls-1" d="M90.27,36.22h27.7v3.75c0,15.23-12.37,27.6-27.6,27.6h-.1v-31.35h0Z" transform="translate(208.25 103.78) rotate(-180)"/>
        <path class="cls-1" d="M62.57,67.68h27.7v34.94c0,15.23-12.37,27.6-27.6,27.6h-.1v-62.53h0Z" transform="translate(152.84 197.9) rotate(-180)"/>
        <path class="cls-1" d="M62.57,36.22h.1c15.23,0,27.6,12.37,27.6,27.6v3.75h-27.7v-31.35h0Z" transform="translate(152.85 103.78) rotate(180)"/>
      </g>
    </g>
  </g>
</svg>